<?xml version="1.0" encoding="utf-8"?>
<!-- Generator: Adobe Illustrator 21.0.2, SVG Export Plug-In . SVG Version: 6.00 Build 0)  -->
<svg version="1.1" id="レイヤー_2" xmlns="http://www.w3.org/2000/svg" xmlns:xlink="http://www.w3.org/1999/xlink" x="0px"
	 y="0px" viewBox="0 0 142.9 11" style="enable-background:new 0 0 142.9 11;" xml:space="preserve">
<style type="text/css">
	.st0{fill:#ffffff;}
</style>
<g>
	<path class="st0" d="M127,4.7l-2.4,0l-2.3,5.6l-0.1-0.1l-2.1-2.6l2.7-2.9l-2.4,0l-2.3,2.6l0-2.6l-2,0l0,6.1l2.1,0V8.1l2.1,2.7l4,0
		l0.4-1.1h2.3l0.4,1l2.1,0L127,4.7z M125.1,8.5l0.7-2.1l0.7,2.1H125.1z"/>
	<path class="st0" d="M140.8,10.8h2.1l-2.5-6.1l-2.4,0l-2.5,6.1l2.1,0l0.4-1l2.3,0L140.8,10.8z M138.5,8.5l0.7-2.1l0.7,2.1
		L138.5,8.5z"/>
	<polygon class="st0" points="115.2,10.8 115.2,7.7 115.2,4.7 114.2,4.7 113.1,4.7 113.1,7.7 113.1,10.8 114.2,10.8 	"/>
	<path class="st0" d="M131.3,8.4c-0.7,0-1.1-0.1-1.5-0.5c-0.3-0.2-0.5-0.7-0.5-1.4c0-0.8,0.2-1.2,0.5-1.5c0.5-0.5,1.6-0.5,2.7-0.5
		c1.7,0,2.2,0.1,2.7,0.8c0.2,0.2,0.3,0.7,0.4,1.3l-1.9,0c0-0.5-0.6-0.6-1.3-0.6c-0.5,0-1.4,0-1.5,0.5c0,0.5,0.6,0.5,1.1,0.5
		c0,0,1,0,1.8,0.1c0.8,0,1.1,0.2,1.3,0.5c0.4,0.4,0.4,1,0.4,1.4c0,1.7-1.1,1.9-3,1.9c-1.9,0-2.3-0.1-2.8-0.5
		c-0.3-0.3-0.6-0.7-0.6-1.5l1.8,0c0,0.5,0.7,0.6,1.5,0.6c0.5,0,1.3,0,1.3-0.5c0.1-0.5-0.5-0.5-1-0.5C133,8.5,132,8.4,131.3,8.4"/>
	<polygon class="st0" points="114.2,0 113.6,1.6 112,1.6 113.3,2.5 112.8,4.1 114.2,3.1 115.5,4.1 115,2.5 116.3,1.6 114.7,1.6 	"/>
	<polygon class="st0" points="107.5,6.5 106.5,3.4 104.3,3.3 102.3,10.8 104.6,10.8 105.5,7 106.6,10.8 108.4,10.8 109.5,7 
		110.3,10.8 112.6,10.8 110.6,3.3 108.5,3.3 	"/>
</g>
<path class="st0" d="M80.3,4c0,0.1,0,0.2,0,0.3c0,0.1-0.1,0.2-0.1,0.3c-0.1,0.1-0.1,0.1-0.2,0.2c-0.1,0-0.2,0.1-0.4,0.1
	c-0.3,0-0.5-0.1-0.6-0.3c-0.2-0.2-0.3-0.5-0.5-0.9c-0.1,0.1-0.2,0.2-0.3,0.4C78,4.3,78,4.8,78,5.6L78,6l1.4,0l0,0.5l-1.4,0l0,3.4
	c0,0.1,0,0.2,0.1,0.3c0.1,0.1,0.1,0.1,0.2,0.2c0.1,0,0.2,0.1,0.3,0.1c0.1,0,0.2,0,0.3,0.1l0,0.4l-3.3,0l0-0.4c0.1,0,0.2,0,0.2,0
	c0.1,0,0.2,0,0.2-0.1c0.1,0,0.2-0.1,0.2-0.2c0-0.1,0.1-0.2,0.1-0.3l0-3.4l-1,0l0-0.5l1,0c0-0.4,0-0.7,0.1-1C76.7,4.6,76.8,4.3,77,4
	c0.2-0.3,0.5-0.5,0.8-0.6c0.3-0.2,0.7-0.2,1.2-0.2c0.4,0,0.7,0.1,1,0.2C80.2,3.5,80.3,3.7,80.3,4z"/>
<path class="st0" d="M85.2,9.6c-0.1,0.2-0.3,0.4-0.4,0.5c-0.2,0.2-0.3,0.3-0.6,0.4c-0.2,0.1-0.4,0.2-0.7,0.3
	c-0.2,0.1-0.5,0.1-0.8,0.1c-0.5,0-0.9-0.1-1.3-0.2c-0.4-0.1-0.6-0.3-0.9-0.6c-0.2-0.2-0.4-0.5-0.5-0.8c-0.1-0.3-0.2-0.7-0.2-1
	c0-0.3,0.1-0.7,0.2-1c0.1-0.3,0.3-0.6,0.5-0.8c0.2-0.2,0.5-0.4,0.8-0.6c0.3-0.1,0.7-0.2,1.1-0.2c0.5,0,0.8,0.1,1.1,0.2
	c0.3,0.1,0.5,0.3,0.7,0.5c0.2,0.2,0.3,0.4,0.4,0.7C85,7.3,85,7.6,85,7.8l0,0.3l-3.3,0c0,0.7,0.1,1.2,0.4,1.5
	c0.3,0.3,0.7,0.5,1.2,0.5c0.3,0,0.6-0.1,0.8-0.3c0.2-0.2,0.5-0.4,0.6-0.6L85.2,9.6z M83.3,7.7c0-0.2,0-0.4,0-0.6
	c0-0.2-0.1-0.4-0.1-0.5c-0.1-0.2-0.1-0.3-0.2-0.3c-0.1-0.1-0.2-0.1-0.4-0.1c-0.3,0-0.5,0.1-0.6,0.4c-0.2,0.3-0.2,0.7-0.2,1.2
	L83.3,7.7z"/>
<path class="st0" d="M91.5,10.7c-0.1,0.1-0.3,0.1-0.5,0.2c-0.2,0.1-0.4,0.1-0.6,0.1c-0.4,0-0.7-0.1-0.9-0.2
	c-0.2-0.1-0.3-0.3-0.4-0.5l0,0c-0.1,0.1-0.2,0.2-0.3,0.3c-0.1,0.1-0.2,0.1-0.3,0.2c-0.2,0.1-0.3,0.1-0.4,0.2c-0.1,0-0.3,0.1-0.6,0.1
	c-0.4,0-0.7-0.1-1-0.3c-0.3-0.2-0.4-0.5-0.4-0.9c0-0.2,0-0.4,0.1-0.5c0.1-0.1,0.1-0.3,0.3-0.4c0.1-0.1,0.2-0.2,0.3-0.3
	c0.1-0.1,0.3-0.1,0.4-0.2c0.3-0.1,0.7-0.2,1.1-0.4c0.4-0.1,0.7-0.2,0.9-0.3l0-0.5c0-0.1,0-0.2,0-0.3c0-0.1,0-0.3-0.1-0.3
	c0-0.1-0.1-0.2-0.2-0.3c-0.1-0.1-0.2-0.1-0.4-0.1c-0.1,0-0.3,0-0.4,0.1c-0.1,0-0.2,0.1-0.2,0.1c0,0.1,0,0.2,0.1,0.3
	c0,0.1,0.1,0.3,0.1,0.4c0,0.1,0,0.1,0,0.2c0,0.1-0.1,0.1-0.1,0.2c-0.1,0.1-0.2,0.1-0.3,0.2c-0.1,0-0.2,0.1-0.4,0.1
	c-0.3,0-0.5-0.1-0.6-0.2c-0.1-0.1-0.2-0.3-0.2-0.5c0-0.2,0.1-0.4,0.2-0.5c0.1-0.1,0.3-0.3,0.5-0.4c0.2-0.1,0.4-0.2,0.7-0.2
	c0.3-0.1,0.5-0.1,0.8-0.1c0.3,0,0.6,0,0.9,0.1c0.3,0,0.5,0.1,0.7,0.2c0.2,0.1,0.4,0.3,0.5,0.5c0.1,0.2,0.2,0.5,0.2,0.9
	c0,0.4,0,0.8,0,1.3c0,0.5,0,0.9,0,1c0,0.1,0,0.3,0.1,0.4c0,0.1,0.1,0.2,0.2,0.2c0.1,0,0.1,0,0.3,0c0.1,0,0.2,0,0.3,0L91.5,10.7z
	 M89.1,8.1c-0.2,0.1-0.4,0.1-0.6,0.2c-0.2,0.1-0.3,0.2-0.4,0.3c-0.1,0.1-0.2,0.2-0.3,0.4c-0.1,0.1-0.1,0.3-0.1,0.5
	c0,0.3,0.1,0.4,0.2,0.6c0.1,0.1,0.3,0.2,0.4,0.2c0.2,0,0.3,0,0.4-0.1C88.9,10,89,9.9,89,9.8L89.1,8.1z"/>
<path class="st0" d="M95.8,10.5c-0.2,0.1-0.4,0.2-0.7,0.3c-0.2,0.1-0.5,0.1-0.9,0.1c-0.5,0-0.9-0.1-1.1-0.4
	c-0.3-0.2-0.4-0.6-0.4-1.1l0-3l-0.9,0l0-0.5l0.9,0l0-1.5l1.6,0l0,1.5l1.4,0l0,0.5l-1.4,0l0,2.7c0,0.4,0.1,0.7,0.2,0.8
	c0.1,0.2,0.3,0.2,0.6,0.2c0.1,0,0.2,0,0.4,0c0.2,0,0.3,0,0.3,0L95.8,10.5z"/>
<path class="st0" d="M98.7,9.9c0,0.3-0.1,0.5-0.3,0.7c-0.2,0.2-0.4,0.3-0.7,0.3c-0.3,0-0.5-0.1-0.7-0.3c-0.2-0.2-0.3-0.4-0.3-0.7
	c0-0.3,0.1-0.5,0.3-0.7c0.2-0.2,0.4-0.3,0.7-0.3c0.3,0,0.5,0.1,0.7,0.3C98.6,9.4,98.7,9.6,98.7,9.9z"/>
<path class="st0" d="M2,7.8v2.6c0,0.1,0,0.2,0.1,0.2c0.1,0.1,0.1,0.1,0.3,0.1v0.2H0v-0.2c0.1,0,0.2-0.1,0.3-0.1
	c0.1-0.1,0.1-0.1,0.1-0.2v-6c0-0.1,0-0.2-0.1-0.2C0.2,4,0.1,4,0,4V3.8h6.5c0.1,0,0.2,0,0.2-0.1c0.1,0,0.1-0.1,0.1-0.3h0.2v1.8H6.9
	c0-0.1-0.1-0.2-0.1-0.3C6.7,5,6.6,5,6.5,5H2v1.7h3c0.1,0,0.2,0,0.3-0.1c0.1,0,0.1-0.1,0.1-0.3h0.2v1.8H5.3c0-0.1-0.1-0.2-0.1-0.3
	c-0.1,0-0.1-0.1-0.3-0.1H2z"/>
<path class="st0" d="M15.8,4.3v4c0,0.8-0.1,1.3-0.4,1.7c-0.5,0.7-1.6,1-3.2,1c-1.2,0-2.1-0.2-2.7-0.5C9.1,10.3,8.9,10,8.7,9.6
	C8.6,9.3,8.5,8.8,8.5,8.3v-4c0-0.1,0-0.2-0.1-0.2C8.4,4,8.3,4,8.2,4V3.8h2.3V4c-0.1,0-0.2,0.1-0.3,0.1c-0.1,0.1-0.1,0.1-0.1,0.2v3.6
	c0,0.4,0,0.7,0.1,0.9c0,0.2,0.1,0.4,0.3,0.5c0.3,0.4,0.9,0.5,1.8,0.5c0.8,0,1.4-0.2,1.8-0.5c0.1-0.1,0.2-0.3,0.3-0.5
	c0-0.2,0.1-0.5,0.1-0.9V4.3c0-0.1,0-0.2-0.1-0.2C14.2,4,14.1,4,14,4V3.8h2.2V4C16,4,16,4,15.9,4.1C15.9,4.2,15.8,4.2,15.8,4.3z"/>
<path class="st0" d="M20.7,7.6l-1.1,0.9v1.9c0,0.1,0,0.2,0.1,0.2c0.1,0.1,0.1,0.1,0.3,0.1v0.2h-2.3v-0.2c0.1,0,0.2-0.1,0.3-0.1
	c0.1-0.1,0.1-0.1,0.1-0.2v-6c0-0.1,0-0.2-0.1-0.2C17.8,4,17.8,4,17.6,4V3.8h2.3V4c-0.1,0-0.2,0.1-0.3,0.1c-0.1,0.1-0.1,0.1-0.1,0.2
	v2.5l3-2.4c0.1-0.1,0.2-0.2,0.2-0.3c0-0.1-0.1-0.2-0.3-0.2V3.8h3V4C25.4,4,25.3,4,25.3,4c-0.1,0-0.2,0.1-0.5,0.4l-0.4,0.3l-2.5,1.9
	l2.8,3.3c0.3,0.3,0.5,0.5,0.6,0.6c0.1,0.1,0.3,0.1,0.4,0.2v0.2h-2.9v-0.2c0.2,0,0.3-0.1,0.3-0.2c0,0-0.1-0.2-0.3-0.4L20.7,7.6z"/>
<path class="st0" d="M34.3,4.3v4c0,0.8-0.1,1.3-0.4,1.7c-0.5,0.7-1.6,1-3.2,1c-1.2,0-2.1-0.2-2.7-0.5c-0.4-0.2-0.6-0.5-0.8-0.9
	C27,9.3,27,8.8,27,8.3v-4c0-0.1,0-0.2-0.1-0.2C26.8,4,26.7,4,26.6,4V3.8h2.3V4c-0.1,0-0.2,0.1-0.3,0.1c-0.1,0.1-0.1,0.1-0.1,0.2v3.6
	c0,0.4,0,0.7,0.1,0.9c0,0.2,0.1,0.4,0.3,0.5c0.3,0.4,0.9,0.5,1.8,0.5c0.8,0,1.4-0.2,1.8-0.5c0.1-0.1,0.2-0.3,0.3-0.5
	c0-0.2,0.1-0.5,0.1-0.9V4.3c0-0.1,0-0.2-0.1-0.2C32.7,4,32.6,4,32.4,4V3.8h2.2V4c-0.1,0-0.2,0.1-0.3,0.1C34.3,4.2,34.3,4.2,34.3,4.3
	z"/>
<path class="st0" d="M37.9,6v4.3c0,0.1,0,0.2,0.1,0.2c0.1,0.1,0.1,0.1,0.3,0.1v0.2h-2.2v-0.2c0.1,0,0.2-0.1,0.3-0.1
	c0.1-0.1,0.1-0.1,0.1-0.2v-6c0-0.1,0-0.2-0.1-0.2C36.3,4,36.2,4,36.1,4V3.8h2.5V4c-0.2,0-0.2,0.1-0.2,0.2c0,0.1,0.1,0.2,0.2,0.3
	l4.1,4.1V4.3c0-0.1,0-0.2-0.1-0.2C42.4,4,42.4,4,42.2,4V3.8h2.2V4c-0.1,0-0.2,0.1-0.3,0.1C44.1,4.2,44,4.2,44,4.3v6
	c0,0.1,0,0.2,0.1,0.2c0.1,0.1,0.1,0.1,0.3,0.1v0.2h-2.3v-0.2c0.2,0,0.2-0.1,0.2-0.2c0-0.1-0.1-0.2-0.3-0.4L37.9,6z"/>
<path class="st0" d="M51.4,9.1H48l-0.5,1c-0.1,0.1-0.1,0.2-0.1,0.3c0,0.2,0.1,0.3,0.4,0.3v0.2h-2.4v-0.2c0.1,0,0.3-0.1,0.3-0.1
	c0.1-0.1,0.2-0.2,0.3-0.4l2.7-5.5c0.1-0.2,0.1-0.3,0.1-0.4c0-0.2-0.1-0.3-0.3-0.3V3.8h2.6V4c-0.2,0.1-0.3,0.2-0.3,0.3
	c0,0.1,0,0.2,0.1,0.3l2.8,5.5c0.1,0.2,0.2,0.4,0.3,0.5c0.1,0.1,0.2,0.1,0.4,0.2v0.2h-2.7v-0.2c0.2,0,0.4-0.1,0.4-0.3
	c0-0.1,0-0.2-0.1-0.3L51.4,9.1z M50.9,8.1l-1.2-2.5l-1.2,2.5H50.9z"/>
<path class="st0" d="M57.2,8v2.4c0,0.1,0,0.2,0.1,0.2c0.1,0.1,0.1,0.1,0.3,0.1v0.2h-2.3v-0.2c0.1,0,0.2-0.1,0.3-0.1
	c0.1-0.1,0.1-0.1,0.1-0.2v-6c0-0.1,0-0.2-0.1-0.2C55.5,4,55.4,4,55.3,4V3.8h4.6c0.6,0,1,0,1.3,0.1c0.3,0.1,0.6,0.2,0.9,0.3
	c0.3,0.2,0.5,0.4,0.6,0.7c0.1,0.3,0.2,0.6,0.2,1c0,1.2-0.7,1.8-2,2l1.4,2c0.3,0.3,0.4,0.6,0.6,0.7c0.1,0.1,0.3,0.2,0.4,0.2v0.2h-2.7
	v-0.2c0.2,0,0.3-0.1,0.3-0.2c0-0.1-0.1-0.2-0.3-0.5L59.2,8H57.2z M57.2,6.8h2.5c0.4,0,0.6,0,0.8,0c0.2,0,0.3-0.1,0.4-0.1
	c0.3-0.1,0.4-0.4,0.4-0.8c0-0.4-0.1-0.6-0.4-0.8C60.8,5.1,60.6,5,60.5,5c-0.1,0-0.4,0-0.8,0h-2.5V6.8z"/>
<path class="st0" d="M68.6,7.9v2.4c0,0.1,0,0.2,0.1,0.2c0.1,0.1,0.1,0.1,0.3,0.1v0.2h-2.3v-0.2c0.1,0,0.2-0.1,0.3-0.1
	c0.1-0.1,0.1-0.1,0.1-0.2V7.9l-2.4-3.2c-0.2-0.3-0.4-0.5-0.5-0.6C64,4,63.8,4,63.7,4V3.8h2.9V4c-0.2,0-0.4,0.1-0.4,0.3
	c0,0.1,0.1,0.2,0.2,0.4l1.3,1.9l1.4-1.9c0.1-0.2,0.2-0.3,0.2-0.4c0-0.1,0-0.1-0.1-0.2C69.2,4,69.1,4,69,4V3.8h2.8V4
	c-0.2,0-0.3,0.1-0.4,0.2c-0.1,0.1-0.3,0.3-0.5,0.6L68.6,7.9z"/>
</svg>
