<?xml version="1.0" encoding="utf-8"?>
<!-- Generator: Adobe Illustrator 21.0.2, SVG Export Plug-In . SVG Version: 6.00 Build 0)  -->
<svg version="1.1" id="レイヤー_2" xmlns="http://www.w3.org/2000/svg" xmlns:xlink="http://www.w3.org/1999/xlink" x="0px"
	 y="0px" viewBox="0 0 234.7 24.8" style="enable-background:new 0 0 234.7 24.8;" xml:space="preserve">
<style type="text/css">
  .st0{fill:#ffffff;}
</style>
<g>
	<path class="st0" d="M6.4,14.2v8.4c0,0.4,0.1,0.6,0.3,0.8c0.2,0.2,0.5,0.3,0.9,0.4v0.6H0v-0.6c0.4-0.1,0.7-0.3,0.9-0.4
		c0.2-0.2,0.3-0.5,0.3-0.8V2.9c0-0.4-0.1-0.6-0.3-0.8C0.7,1.9,0.4,1.8,0,1.6V1.1h21.3c0.3,0,0.6-0.1,0.8-0.2
		c0.2-0.2,0.3-0.4,0.5-0.9h0.6v6h-0.6c-0.1-0.4-0.3-0.7-0.5-0.8c-0.2-0.2-0.5-0.2-0.8-0.2H6.4v5.5h9.8c0.4,0,0.6-0.1,0.8-0.2
		c0.2-0.2,0.3-0.4,0.5-0.8H18v5.9h-0.6c-0.1-0.4-0.3-0.7-0.5-0.8c-0.2-0.2-0.5-0.2-0.8-0.2H6.4z"/>
	<path class="st0" d="M51.7,2.9v13c0,2.5-0.5,4.3-1.4,5.5c-1.7,2.2-5.2,3.3-10.5,3.3c-3.8,0-6.8-0.6-8.8-1.8c-1.2-0.7-2-1.6-2.5-2.8
		c-0.4-1.2-0.7-2.6-0.7-4.2v-13c0-0.4-0.1-0.6-0.2-0.8c-0.2-0.2-0.5-0.3-0.9-0.4V1.1h7.5v0.6c-0.4,0.1-0.7,0.3-0.9,0.4
		c-0.2,0.2-0.3,0.5-0.3,0.8v11.6c0,1.3,0.1,2.3,0.2,3c0.2,0.6,0.4,1.2,0.9,1.6c1.1,1.2,3.1,1.7,5.8,1.7c2.7,0,4.7-0.6,5.8-1.7
		c0.4-0.4,0.7-1,0.8-1.6c0.2-0.6,0.2-1.6,0.2-3V2.9c0-0.4-0.1-0.6-0.3-0.8c-0.2-0.2-0.5-0.3-0.9-0.4V1.1h7.1v0.6
		c-0.4,0.1-0.7,0.3-0.9,0.4C51.8,2.3,51.7,2.5,51.7,2.9z"/>
	<path class="st0" d="M67.6,13.5L64,16.3v6.2c0,0.4,0.1,0.6,0.3,0.8c0.2,0.2,0.5,0.3,0.9,0.4v0.6h-7.5v-0.6c0.4-0.1,0.7-0.3,0.9-0.4
		c0.2-0.2,0.3-0.5,0.3-0.8V2.9c0-0.3-0.1-0.6-0.3-0.8c-0.2-0.2-0.5-0.3-0.9-0.4V1.1h7.5v0.6c-0.4,0.1-0.7,0.3-0.9,0.4
		C64,2.3,64,2.5,64,2.9V11l9.9-7.8c0.5-0.4,0.7-0.7,0.7-0.9c0-0.3-0.3-0.6-1-0.7V1.1h9.9v0.6c-0.4,0.1-0.7,0.2-0.9,0.3
		C82.3,2,81.8,2.4,81,3.1l-1.4,1.1l-8.2,6.3l9.3,10.8c0.9,1,1.5,1.7,1.9,1.9c0.4,0.3,0.9,0.5,1.4,0.6v0.5h-9.4v-0.6
		c0.6-0.1,0.9-0.3,0.9-0.7c0-0.2-0.3-0.6-0.9-1.3L67.6,13.5z"/>
	<path class="st0" d="M111.9,2.9v13c0,2.5-0.5,4.3-1.4,5.5c-1.7,2.2-5.2,3.3-10.5,3.3c-3.8,0-6.8-0.6-8.8-1.8
		c-1.2-0.7-2-1.6-2.5-2.8c-0.4-1.2-0.7-2.6-0.7-4.2v-13c0-0.4-0.1-0.6-0.2-0.8c-0.2-0.2-0.5-0.3-0.9-0.4V1.1h7.5v0.6
		c-0.4,0.1-0.7,0.3-0.9,0.4c-0.2,0.2-0.3,0.5-0.3,0.8v11.6c0,1.3,0.1,2.3,0.2,3c0.2,0.6,0.4,1.2,0.9,1.6c1.1,1.2,3.1,1.7,5.8,1.7
		c2.7,0,4.7-0.6,5.8-1.7c0.4-0.4,0.7-1,0.8-1.6c0.2-0.6,0.2-1.6,0.2-3V2.9c0-0.4-0.1-0.6-0.3-0.8c-0.2-0.2-0.5-0.3-0.9-0.4V1.1h7.1
		v0.6c-0.4,0.1-0.7,0.3-0.9,0.4C112,2.3,111.9,2.5,111.9,2.9z"/>
	<path class="st0" d="M123.8,8.4v14.1c0,0.4,0.1,0.6,0.2,0.8c0.2,0.2,0.5,0.3,0.9,0.4v0.6h-7.1v-0.6c0.4-0.1,0.7-0.3,0.9-0.4
		c0.2-0.2,0.3-0.5,0.3-0.8V2.9c0-0.3-0.1-0.6-0.3-0.8c-0.2-0.2-0.5-0.3-0.9-0.4V1.1h8.2v0.6c-0.5,0.1-0.8,0.4-0.8,0.8
		c0,0.3,0.2,0.6,0.5,0.9L139,16.7V2.9c0-0.3-0.1-0.6-0.3-0.8c-0.2-0.2-0.5-0.3-0.9-0.4V1.1h7.1v0.6c-0.4,0.1-0.7,0.3-0.9,0.4
		c-0.2,0.2-0.3,0.4-0.3,0.8v19.7c0,0.4,0.1,0.6,0.3,0.8c0.2,0.2,0.5,0.3,0.9,0.4v0.6h-7.6v-0.6c0.5-0.1,0.7-0.4,0.7-0.7
		c0-0.2-0.3-0.6-0.9-1.2L123.8,8.4z"/>
	<path class="st0" d="M167.8,18.4h-10.9l-1.6,3.3c-0.2,0.5-0.3,0.8-0.3,1.1c0,0.5,0.4,0.8,1.2,1v0.6h-8v-0.6
		c0.5-0.1,0.8-0.3,1.1-0.5c0.3-0.2,0.5-0.7,0.8-1.3l8.9-17.9c0.3-0.6,0.4-1,0.4-1.4c0-0.5-0.3-0.9-1-1.1V1.1h8.5v0.6
		c-0.7,0.2-1,0.5-1,1c0,0.3,0.1,0.7,0.3,1.1l9.2,17.9c0.4,0.8,0.7,1.3,1,1.6c0.3,0.3,0.7,0.5,1.2,0.6v0.6h-8.9v-0.6
		c0.8-0.1,1.2-0.5,1.2-1.1c0-0.2-0.1-0.6-0.4-1.1L167.8,18.4z M166.3,15.2L162.4,7l-3.9,8.2H166.3z"/>
	<path class="st0" d="M186.9,14.9v7.7c0,0.3,0.1,0.6,0.3,0.8c0.2,0.2,0.5,0.3,0.9,0.4v0.6h-7.5v-0.6c0.4-0.1,0.7-0.3,0.9-0.4
		c0.2-0.2,0.2-0.4,0.2-0.8V2.9c0-0.4-0.1-0.6-0.2-0.8c-0.2-0.2-0.5-0.3-0.9-0.4V1.1h15.1c1.8,0,3.3,0.1,4.4,0.3
		c1.1,0.2,2,0.6,2.8,1.1c0.9,0.6,1.6,1.4,2.1,2.4c0.4,1,0.7,2,0.7,3.1c0,3.8-2.2,6-6.6,6.7l4.7,6.4c0.8,1.1,1.4,1.8,1.8,2.2
		c0.4,0.3,0.9,0.5,1.4,0.5v0.6h-8.7v-0.6c0.6-0.1,0.9-0.3,0.9-0.6c0-0.2-0.3-0.7-0.8-1.5l-4.9-6.8H186.9z M186.9,11h8.1
		c1.2,0,2,0,2.5-0.1c0.5-0.1,0.9-0.2,1.4-0.4c0.9-0.5,1.3-1.3,1.3-2.5c0-1.2-0.4-2.1-1.3-2.5c-0.4-0.2-0.9-0.4-1.4-0.4
		c-0.5-0.1-1.3-0.1-2.6-0.1h-8.1V11z"/>
	<path class="st0" d="M223.9,14.6v7.9c0,0.4,0.1,0.6,0.3,0.8c0.2,0.2,0.5,0.3,0.9,0.4v0.6h-7.6v-0.6c0.4-0.1,0.7-0.3,0.9-0.4
		c0.2-0.2,0.3-0.5,0.3-0.8v-7.9L210.9,4c-0.7-0.9-1.2-1.5-1.6-1.8c-0.4-0.3-0.8-0.5-1.4-0.6V1.1h9.5v0.6c-0.8,0.1-1.2,0.5-1.2,1.1
		c0,0.2,0.2,0.7,0.7,1.3l4.3,6.2l4.5-6.2c0.5-0.7,0.7-1.1,0.7-1.4c0-0.3-0.1-0.5-0.3-0.7c-0.2-0.2-0.5-0.3-0.9-0.4V1.1h9.3v0.6
		c-0.5,0.1-1,0.3-1.4,0.6c-0.4,0.3-0.9,0.9-1.6,1.8L223.9,14.6z"/>
</g>
</svg>
