<?xml version="1.0" encoding="utf-8"?>
<!-- Generator: Adobe Illustrator 21.0.2, SVG Export Plug-In . SVG Version: 6.00 Build 0)  -->
<svg version="1.1" id="レイヤー_2" xmlns="http://www.w3.org/2000/svg" xmlns:xlink="http://www.w3.org/1999/xlink" x="0px"
	 y="0px" viewBox="0 0 101 116" style="enable-background:new 0 0 101 116;" xml:space="preserve">
<style type="text/css">
  .st0{fill:#ffffff;}
</style>
<g>
	<path class="st0" d="M2.6,109.4v0.2c-0.1,0-0.1,0-0.2,0c-0.1,0-0.1,0.1-0.1,0.2c0,0,0.1,0.2,0.2,0.4c0.1,0.2,0.3,0.4,0.4,0.6
		c0.2,0.2,0.3,0.5,0.5,0.7c0.2,0.3,0.3,0.5,0.4,0.6l1.5-2c0.1-0.1,0.1-0.2,0.2-0.2c0-0.1,0.1-0.1,0.1-0.2c0-0.1,0-0.1-0.1-0.1
		c-0.1,0-0.2,0-0.2,0v-0.2h2.2v0.2c-0.1,0-0.1,0-0.2,0c-0.1,0-0.1,0-0.2,0.1c-0.1,0.1-0.1,0.1-0.2,0.2c-0.1,0.1-0.2,0.2-0.3,0.4
		l-2.1,3v2.2c0,0.1,0.1,0.2,0.3,0.2v0.2h-2v-0.2c0.1,0,0.1,0,0.2,0c0.1,0,0.1-0.1,0.1-0.2v-2.2l-2.4-3.4c-0.1-0.1-0.2-0.2-0.3-0.2
		c-0.1,0-0.2-0.1-0.3-0.1v-0.2H2.6z"/>
	<path class="st0" d="M7.1,115.7c0.1,0,0.2-0.1,0.3-0.2c0.1-0.1,0.1-0.2,0.2-0.3l2.3-4.9c0.1-0.1,0.1-0.2,0.2-0.3
		c0-0.1,0.1-0.2,0.1-0.2c0-0.1,0-0.1-0.1-0.2c-0.1,0-0.1-0.1-0.2-0.1v-0.2h2.1v0.2c-0.1,0-0.1,0-0.2,0.1c-0.1,0-0.1,0.1-0.1,0.2
		c0,0.1,0,0.1,0,0.2c0,0.1,0.1,0.2,0.1,0.3l2.6,5.1c0,0.1,0.1,0.2,0.2,0.2c0.1,0,0.1,0.1,0.2,0.1v0.2h-2.2v-0.2c0,0,0.1,0,0.1,0
		c0.1,0,0.1-0.1,0.1-0.1c0-0.1,0-0.2-0.1-0.3l-0.5-0.9h-3l-0.4,0.9c-0.1,0.2-0.1,0.3-0.1,0.4c0,0.1,0.1,0.1,0.2,0.1v0.2H7.1V115.7z
		 M11.8,113.4l-1.1-2.3l-1.2,2.3H11.8z"/>
	<path class="st0" d="M22,109.8c0-0.2-0.1-0.2-0.3-0.2v-0.2h1.9v0.2c-0.1,0-0.1,0-0.2,0.1c-0.1,0-0.1,0.1-0.1,0.2v5.7
		c0,0.1,0,0.1,0.1,0.2c0,0,0.1,0,0.2,0v0.2h-1.9v-0.2c0.2,0,0.3-0.1,0.3-0.2v-2.3h-4v2.3c0,0.1,0,0.1,0.1,0.2c0.1,0,0.1,0,0.2,0v0.2
		h-1.9v-0.2c0.2,0,0.2-0.1,0.2-0.2v-5.7c0-0.2-0.1-0.2-0.2-0.2v-0.2h1.9v0.2c-0.1,0-0.1,0-0.2,0.1c0,0-0.1,0.1-0.1,0.2v2.1h4V109.8z
		"/>
	<path class="st0" d="M25.1,115.7c0.1,0,0.2-0.1,0.3-0.2c0.1-0.1,0.1-0.2,0.2-0.3l2.3-4.9c0.1-0.1,0.1-0.2,0.2-0.3
		c0.1-0.1,0.1-0.2,0.1-0.2c0-0.1,0-0.1-0.1-0.2c-0.1,0-0.1-0.1-0.2-0.1v-0.2h2.1v0.2c-0.1,0-0.1,0-0.2,0.1c0,0-0.1,0.1-0.1,0.2
		c0,0.1,0,0.1,0,0.2c0,0.1,0.1,0.2,0.1,0.3l2.6,5.1c0,0.1,0.1,0.2,0.2,0.2c0.1,0,0.2,0.1,0.2,0.1v0.2h-2.2v-0.2c0,0,0.1,0,0.1,0
		c0,0,0.1-0.1,0.1-0.1c0-0.1,0-0.2-0.1-0.3l-0.5-0.9h-3l-0.4,0.9c-0.1,0.2-0.1,0.3-0.1,0.4c0,0.1,0.1,0.1,0.2,0.1v0.2h-1.8V115.7z
		 M29.8,113.4l-1-2.3l-1.2,2.3H29.8z"/>
	<path class="st0" d="M34.7,113.9l0.1,0c0,0.1,0,0.2,0.1,0.2c0.1,0.1,0.2,0.2,0.3,0.3c0.2,0.1,0.4,0.2,0.6,0.2
		c0.2,0.1,0.4,0.1,0.7,0.2c0.2,0,0.4,0.1,0.6,0.1c0.1,0,0.3,0,0.6,0c0.2,0,0.4-0.1,0.7-0.1c0.2-0.1,0.4-0.2,0.6-0.3
		c0.2-0.1,0.2-0.3,0.2-0.5c0-0.2-0.1-0.3-0.2-0.4c-0.1-0.1-0.3-0.2-0.6-0.2c-0.2,0-0.5-0.1-0.8-0.1c-0.3,0-0.6,0-0.9,0
		c-0.3,0-0.6-0.1-0.9-0.1c-0.3-0.1-0.6-0.2-0.8-0.3c-0.2-0.1-0.4-0.3-0.6-0.6c-0.1-0.2-0.2-0.6-0.2-0.9c0-0.3,0.1-0.5,0.2-0.8
		c0.1-0.2,0.3-0.5,0.6-0.7c0.3-0.2,0.6-0.3,1-0.5c0.4-0.1,0.8-0.2,1.3-0.2c0.5,0,0.8,0,1.2,0.1c0.3,0.1,0.6,0.1,0.8,0.2
		c0.2,0.1,0.4,0.1,0.6,0.2c0.2,0.1,0.3,0.1,0.4,0.1c0.1,0,0.2,0,0.3-0.1l0.1,0.1l-0.9,1.6l-0.1-0.1c0-0.1-0.1-0.2-0.1-0.3
		c-0.1-0.1-0.2-0.2-0.3-0.3c-0.2-0.1-0.3-0.2-0.5-0.3c-0.2-0.1-0.4-0.1-0.7-0.2c-0.2-0.1-0.5-0.1-0.7-0.1c-0.2,0-0.4,0-0.6,0
		c-0.2,0-0.4,0.1-0.5,0.1c-0.2,0.1-0.3,0.1-0.4,0.2c-0.1,0.1-0.2,0.2-0.2,0.4c0,0.2,0.1,0.4,0.2,0.5c0.1,0.1,0.3,0.2,0.6,0.2
		c0.2,0.1,0.5,0.1,0.8,0.1c0.3,0,0.6,0,0.9,0.1c0.3,0,0.6,0.1,0.9,0.1c0.3,0.1,0.6,0.2,0.8,0.3c0.2,0.1,0.4,0.3,0.6,0.6
		c0.1,0.2,0.2,0.5,0.2,0.9c0,0.4-0.1,0.8-0.3,1.1c-0.2,0.3-0.5,0.5-0.9,0.6c-0.3,0.2-0.7,0.3-1.1,0.3c-0.4,0.1-0.8,0.1-1.1,0.1
		c-0.5,0-0.9,0-1.2-0.1c-0.3,0-0.6-0.1-0.8-0.2c-0.2-0.1-0.4-0.1-0.5-0.2c-0.1-0.1-0.2-0.1-0.3-0.1c-0.1,0-0.1,0-0.2,0.1l-0.2-0.1
		L34.7,113.9z"/>
	<path class="st0" d="M48.3,109.8c0-0.2-0.1-0.2-0.3-0.2v-0.2H50v0.2c-0.1,0-0.1,0-0.2,0.1c-0.1,0-0.1,0.1-0.1,0.2v5.7
		c0,0.1,0,0.1,0.1,0.2c0,0,0.1,0,0.2,0v0.2H48v-0.2c0.2,0,0.3-0.1,0.3-0.2v-2.3h-4v2.3c0,0.1,0,0.1,0.1,0.2c0,0,0.1,0,0.2,0v0.2
		h-1.9v-0.2c0.2,0,0.2-0.1,0.2-0.2v-5.7c0-0.2-0.1-0.2-0.2-0.2v-0.2h1.9v0.2c-0.1,0-0.1,0-0.2,0.1c0,0-0.1,0.1-0.1,0.2v2.1h4V109.8z
		"/>
	<path class="st0" d="M52.2,115.7c0.2,0,0.3-0.1,0.3-0.2v-5.7c0-0.2-0.1-0.2-0.3-0.2v-0.2h2.1v0.2c-0.2,0-0.3,0.1-0.3,0.2v5.7
		c0,0.1,0.1,0.2,0.3,0.2v0.2h-2.1V115.7z"/>
	<path class="st0" d="M60.7,113.9l0.1,0c0,0.1,0,0.2,0,0.2c0.1,0.1,0.2,0.2,0.3,0.3c0.2,0.1,0.4,0.2,0.6,0.2
		c0.2,0.1,0.4,0.1,0.7,0.2c0.2,0,0.5,0.1,0.6,0.1c0.1,0,0.3,0,0.6,0c0.2,0,0.4-0.1,0.7-0.1c0.2-0.1,0.4-0.2,0.6-0.3
		c0.2-0.1,0.2-0.3,0.2-0.5c0-0.2-0.1-0.3-0.2-0.4c-0.1-0.1-0.3-0.2-0.6-0.2c-0.2,0-0.5-0.1-0.8-0.1c-0.3,0-0.6,0-0.9,0
		c-0.3,0-0.6-0.1-0.9-0.1c-0.3-0.1-0.6-0.2-0.8-0.3c-0.2-0.1-0.4-0.3-0.6-0.6c-0.2-0.2-0.2-0.6-0.2-0.9c0-0.3,0.1-0.5,0.2-0.8
		c0.1-0.2,0.3-0.5,0.6-0.7c0.3-0.2,0.6-0.3,0.9-0.5c0.4-0.1,0.8-0.2,1.4-0.2c0.4,0,0.8,0,1.2,0.1c0.3,0.1,0.6,0.1,0.8,0.2
		c0.2,0.1,0.4,0.1,0.6,0.2c0.2,0.1,0.3,0.1,0.4,0.1c0.1,0,0.2,0,0.2-0.1l0.1,0.1l-0.9,1.6l-0.1-0.1c0-0.1-0.1-0.2-0.1-0.3
		c-0.1-0.1-0.2-0.2-0.3-0.3c-0.2-0.1-0.3-0.2-0.5-0.3c-0.2-0.1-0.4-0.1-0.7-0.2c-0.2-0.1-0.5-0.1-0.7-0.1c-0.2,0-0.4,0-0.6,0
		c-0.2,0-0.4,0.1-0.5,0.1c-0.2,0.1-0.3,0.1-0.4,0.2c-0.1,0.1-0.2,0.2-0.2,0.4c0,0.2,0.1,0.4,0.2,0.5c0.2,0.1,0.3,0.2,0.6,0.2
		c0.2,0.1,0.5,0.1,0.8,0.1c0.3,0,0.6,0,0.9,0.1c0.3,0,0.6,0.1,0.9,0.1c0.3,0.1,0.6,0.2,0.8,0.3c0.2,0.1,0.4,0.3,0.6,0.6
		c0.1,0.2,0.2,0.5,0.2,0.9c0,0.4-0.1,0.8-0.3,1.1c-0.2,0.3-0.5,0.5-0.9,0.6c-0.3,0.2-0.7,0.3-1.1,0.3c-0.4,0.1-0.8,0.1-1.1,0.1
		c-0.5,0-0.9,0-1.2-0.1c-0.3,0-0.6-0.1-0.8-0.2c-0.2-0.1-0.4-0.1-0.5-0.2c-0.1-0.1-0.2-0.1-0.3-0.1c-0.1,0-0.1,0-0.2,0.1l-0.2-0.1
		L60.7,113.9z"/>
	<path class="st0" d="M73.7,109.5c0.5,0.1,0.9,0.3,1.3,0.6c0.4,0.3,0.7,0.6,1,1c0.2,0.4,0.4,0.9,0.4,1.5c0,0.6-0.1,1.1-0.4,1.5
		c-0.3,0.4-0.6,0.8-1,1c-0.4,0.3-0.8,0.5-1.3,0.6c-0.5,0.1-0.9,0.2-1.4,0.2c-0.5,0-0.9-0.1-1.4-0.2c-0.5-0.1-0.9-0.3-1.3-0.6
		c-0.4-0.3-0.7-0.6-1-1c-0.2-0.4-0.4-0.9-0.4-1.5c0-0.6,0.1-1.1,0.4-1.5c0.3-0.4,0.6-0.8,1-1c0.4-0.3,0.8-0.5,1.3-0.6
		c0.5-0.1,0.9-0.2,1.4-0.2C72.7,109.3,73.2,109.4,73.7,109.5z M71.3,110.6c-0.3,0.1-0.6,0.2-0.9,0.4c-0.3,0.2-0.5,0.4-0.6,0.7
		c-0.2,0.3-0.2,0.6-0.2,0.9c0,0.4,0.1,0.7,0.2,0.9c0.2,0.3,0.4,0.5,0.6,0.7c0.3,0.2,0.5,0.3,0.9,0.4c0.3,0.1,0.6,0.2,0.9,0.2
		c0.3,0,0.6,0,1-0.2c0.3-0.1,0.6-0.2,0.8-0.4c0.3-0.2,0.5-0.4,0.6-0.7c0.2-0.3,0.2-0.6,0.2-0.9c0-0.3-0.1-0.6-0.2-0.9
		c-0.2-0.3-0.4-0.5-0.6-0.7c-0.2-0.2-0.5-0.3-0.8-0.4c-0.3-0.1-0.6-0.2-1-0.2C72,110.4,71.7,110.5,71.3,110.6z"/>
	<path class="st0" d="M80,109.6c-0.2,0-0.3,0.1-0.3,0.2v3.7c0,0.5,0.2,0.9,0.5,1.1c0.3,0.2,0.8,0.3,1.5,0.3c0.6,0,1.2-0.1,1.5-0.3
		c0.3-0.2,0.5-0.6,0.5-1.1v-3.7c0-0.2-0.1-0.2-0.4-0.2v-0.2h2v0.2c-0.2,0-0.3,0.1-0.3,0.2v3.7c0,0.5-0.1,0.9-0.2,1.2
		c-0.1,0.3-0.4,0.6-0.6,0.8c-0.3,0.2-0.6,0.3-1.1,0.4c-0.4,0.1-0.9,0.1-1.4,0.1c-0.5,0-1,0-1.5-0.1c-0.4-0.1-0.8-0.2-1.1-0.4
		c-0.3-0.2-0.5-0.5-0.6-0.8c-0.1-0.3-0.2-0.7-0.2-1.2v-3.7c0-0.2-0.1-0.2-0.3-0.2v-0.2h2V109.6z"/>
	<path class="st0" d="M87.2,115.7c0.2,0,0.3-0.1,0.3-0.2v-5.7c0-0.2-0.1-0.2-0.3-0.2v-0.2h2.1v0.2c-0.2,0-0.3,0.1-0.3,0.2v5.7
		c0,0.1,0.1,0.2,0.3,0.2v0.2h-2.1V115.7z"/>
	<path class="st0" d="M91.4,115.7c0.2,0,0.2-0.1,0.2-0.2v-5.7c0-0.2-0.1-0.2-0.2-0.2v-0.2h2.1v0.2c-0.1,0-0.1,0-0.1,0.1
		c0,0.1,0.1,0.2,0.2,0.4l3.6,3.7v-4c0-0.2-0.1-0.2-0.3-0.2v-0.2h1.9v0.2c-0.2,0-0.2,0.1-0.2,0.2v5.7c0,0.1,0.1,0.2,0.2,0.2v0.2h-2
		v-0.2c0.1,0,0.2,0,0.2-0.1c0-0.1-0.1-0.2-0.2-0.3l-3.8-4v4.1c0,0.1,0.1,0.2,0.3,0.2v0.2h-1.9V115.7z"/>
</g>
<g>
	<path class="st0" d="M61.3,68.4c-1,0-1.8,0.3-2.4,1C58.3,70,58,70.7,58,71.6c0,0.9,0.3,1.6,0.9,2.2c0.6,0.6,1.4,1,2.4,1
		c1,0,1.8-0.3,2.4-1c0.6-0.6,0.9-1.3,0.9-2.2c0-1-0.3-1.7-0.9-2.3C63.1,68.8,62.3,68.4,61.3,68.4z"/>
	<polygon class="st0" points="24.8,72.7 27.9,72.7 26.3,69.6 	"/>
	<polygon class="st0" points="25.9,54.1 24.4,57.2 27.5,57.2 	"/>
	<path class="st0" d="M76.4,69.7c0-0.4-0.1-0.7-0.4-0.8c-0.2-0.2-0.7-0.2-1.3-0.2h-3.5v2.2h3.5c0.5,0,0.9-0.1,1.2-0.2
		C76.3,70.4,76.4,70.1,76.4,69.7z"/>
	<path class="st0" d="M40.6,55.1c0.3-0.2,0.5-0.5,0.5-0.9c0-0.4-0.1-0.7-0.4-0.8c-0.3-0.1-0.7-0.2-1.3-0.2H36v2.2h3.5
		C40,55.3,40.4,55.2,40.6,55.1z"/>
	<path class="st0" d="M53,88.3c-0.6-0.4-1.4-0.5-2.5-0.5c-1.1,0-2,0.2-2.6,0.6c-0.5,0.3-0.7,0.8-0.7,1.3c0,0.6,0.3,1.1,0.9,1.4
		c0.6,0.3,1.4,0.5,2.5,0.5c1.1,0,2-0.2,2.6-0.6c0.5-0.3,0.7-0.7,0.7-1.3C53.9,89.1,53.6,88.6,53,88.3z"/>
	<path class="st0" d="M48.4,85.1c0.5,0.3,1.2,0.4,2.1,0.4c0.9,0,1.6-0.1,2.2-0.4c0.5-0.3,0.8-0.6,0.8-1.1c0-0.5-0.3-0.9-0.8-1.2
		c-0.5-0.3-1.3-0.4-2.2-0.4c-0.9,0-1.6,0.1-2.1,0.4c-0.5,0.3-0.8,0.7-0.8,1.1C47.6,84.4,47.9,84.8,48.4,85.1z"/>
	<path class="st0" d="M50.7,0.3v40.4L0.5,0v40.5l0-0.7v64.7h0.1h100.1v-0.3V40.6l0.2,0.2L50.7,0.3z M71,60.7c0.2,0,0.3-0.1,0.4-0.2
		c0.1-0.1,0.1-0.2,0.1-0.4v-7.9c0-0.2,0-0.3-0.1-0.4c-0.1-0.1-0.2-0.2-0.4-0.2v-0.2h3.7v0.2c-0.3,0-0.4,0.2-0.4,0.3
		c0,0.1,0.1,0.3,0.3,0.5l5.2,5.1v-5.3c0-0.2,0-0.3-0.1-0.4c-0.1-0.1-0.2-0.2-0.4-0.2v-0.2h3.2v0.2c-0.2,0-0.4,0.1-0.4,0.2
		c-0.1,0.1-0.1,0.2-0.1,0.4v7.9c0,0.2,0,0.3,0.1,0.4c0.1,0.1,0.2,0.2,0.4,0.2V61h-3.5v-0.2c0.3,0,0.4-0.2,0.4-0.3
		c0-0.1,0-0.2-0.1-0.2c-0.1-0.1-0.2-0.3-0.5-0.5l-5.1-5v5.4c0,0.2,0,0.3,0.1,0.4c0.1,0.1,0.2,0.2,0.4,0.2V61H71V60.7z M59.7,60.7
		c0.2,0,0.4-0.1,0.4-0.2c0.1-0.1,0.1-0.2,0.1-0.4v-7.9c0-0.2,0-0.3-0.1-0.4c-0.1-0.1-0.2-0.2-0.4-0.2v-0.2h8.7c0.2,0,0.3,0,0.4-0.1
		c0.1-0.1,0.2-0.2,0.2-0.4h0.2v2.8H69c-0.1-0.2-0.1-0.4-0.2-0.4c-0.1-0.1-0.2-0.1-0.4-0.1h-5.8v2.1h3.6c0.2,0,0.3,0,0.4-0.1
		c0.1-0.1,0.2-0.2,0.2-0.4H67v2.8h-0.2c-0.1-0.2-0.1-0.3-0.2-0.4c-0.1-0.1-0.2-0.1-0.4-0.1h-3.6v2.4h6.1c0.2,0,0.3,0,0.4-0.1
		c0.1-0.1,0.2-0.2,0.2-0.4h0.3v2.9h-0.3c-0.1-0.2-0.1-0.3-0.2-0.4C68.9,61,68.8,61,68.6,61h-9V60.7z M45.2,60.7
		c0.2,0,0.3-0.1,0.4-0.2c0.1-0.1,0.1-0.2,0.1-0.4v-7.9c0-0.2-0.1-0.3-0.1-0.4c-0.1-0.1-0.2-0.2-0.4-0.2v-0.2h4.1v0.2
		c-0.3,0.1-0.4,0.3-0.4,0.5c0,0.2,0.1,0.5,0.3,0.9l2.4,4.3L54,53c0.3-0.5,0.4-0.8,0.4-1c0-0.2-0.1-0.4-0.4-0.4v-0.2h4v0.2
		c-0.2,0-0.3,0.1-0.4,0.2c-0.1,0.1-0.1,0.2-0.1,0.4v7.9c0,0.2,0,0.3,0.1,0.4c0.1,0.1,0.2,0.2,0.4,0.2V61h-3.4v-0.2
		c0.2,0,0.3-0.1,0.4-0.2c0.1-0.1,0.1-0.2,0.1-0.4v-5.4L51.4,61l-3.5-6.3v5.4c0,0.2,0,0.3,0.1,0.4c0.1,0.1,0.2,0.2,0.4,0.2V61h-3.2
		V60.7z M45.1,66.3h0.3c0,0.2,0.1,0.3,0.2,0.4c0.1,0.1,0.2,0.1,0.4,0.1h8c0.2,0,0.3,0,0.4-0.1c0.1-0.1,0.2-0.2,0.2-0.4h0.2v2.9h-0.2
		c-0.1-0.2-0.1-0.3-0.2-0.4c-0.1-0.1-0.2-0.1-0.4-0.1h-2.8v7c0,0.2,0,0.3,0.1,0.4c0.1,0.1,0.2,0.2,0.4,0.2v0.2h-3.4v-0.2
		c0.2-0.1,0.4-0.1,0.4-0.2c0.1-0.1,0.1-0.2,0.1-0.4v-7H46c-0.2,0-0.3,0-0.4,0.1c-0.1,0.1-0.2,0.2-0.2,0.4h-0.3V66.3z M8.6,58.5
		C8.2,57.8,8,57,8,56.2c0-1.1,0.3-2.1,1.1-3c1.1-1.4,2.7-2.1,4.8-2.1c0.9,0,2,0.2,3.2,0.6c0.5,0.2,0.7,0.2,0.8,0.2
		c0.1,0,0.2,0,0.3-0.1l0.2,0.1l-1.1,2.4l-0.2-0.1c0,0,0,0,0-0.1c0-0.2-0.2-0.4-0.6-0.7C15.7,53.2,14.8,53,14,53
		c-1,0-1.9,0.3-2.6,0.8c-0.7,0.6-1.1,1.4-1.1,2.4c0,0.9,0.3,1.7,1,2.3c0.6,0.6,1.6,0.9,2.7,0.9c1.1,0,2.1-0.2,2.9-0.6v-1.5h-2.2
		c-0.2,0-0.3,0-0.4,0.1c-0.1,0.1-0.2,0.2-0.2,0.4h-0.2v-2.6h0.2c0.1,0.2,0.1,0.3,0.2,0.4c0.1,0.1,0.2,0.1,0.4,0.1h4.6V56
		c-0.2,0.1-0.4,0.2-0.4,0.3c-0.1,0.1-0.1,0.3-0.1,0.5v2c0,0.2,0,0.3,0.1,0.4c0.1,0.1,0.2,0.2,0.4,0.2v0.2c-1.9,1-3.7,1.5-5.6,1.5
		c-1.6,0-2.9-0.4-3.9-1.1C9.3,59.7,8.9,59.1,8.6,58.5z M20.1,69.1h-0.2c-0.1-0.2-0.1-0.3-0.2-0.4c-0.1-0.1-0.2-0.1-0.4-0.1h-5.8v2.1
		H17c0.2,0,0.3,0,0.4-0.1c0.1-0.1,0.2-0.2,0.2-0.4h0.2v2.8h-0.2c-0.1-0.2-0.1-0.3-0.2-0.4c-0.1-0.1-0.2-0.1-0.4-0.1h-3.6v3.2
		c0,0.2,0.1,0.3,0.1,0.4c0.1,0.1,0.2,0.2,0.4,0.2v0.2h-3.4v-0.2c0.2-0.1,0.4-0.1,0.4-0.2c0.1-0.1,0.1-0.2,0.1-0.4v-7.9
		c0-0.2,0-0.3-0.1-0.4c-0.1-0.1-0.2-0.2-0.4-0.2v-0.2h8.7c0.2,0,0.3,0,0.4-0.1c0.1-0.1,0.2-0.2,0.2-0.4h0.2V69.1z M20.1,60.7
		c0.2,0,0.4-0.1,0.5-0.2c0.1-0.1,0.2-0.3,0.4-0.6l3.5-7.1c0.1-0.3,0.2-0.5,0.2-0.7c0-0.2-0.2-0.4-0.5-0.5v-0.2h3.7v0.2
		c-0.3,0.1-0.5,0.3-0.5,0.6c0,0.2,0.1,0.4,0.2,0.7l3.6,6.9c0.2,0.4,0.4,0.6,0.5,0.7c0.1,0.1,0.3,0.2,0.5,0.2V61h-3.9v-0.2
		c0.4-0.1,0.5-0.2,0.5-0.5c0-0.2-0.1-0.4-0.2-0.7l-0.5-1h-4.4l-0.5,1c-0.1,0.3-0.2,0.4-0.2,0.6c0,0.3,0.2,0.5,0.5,0.5V61h-3.5V60.7z
		 M32.7,76.5h-3.9v-0.2c0.4-0.1,0.5-0.2,0.5-0.5c0-0.2-0.1-0.4-0.2-0.7l-0.5-1h-4.4l-0.5,1c-0.1,0.3-0.2,0.5-0.2,0.6
		c0,0.3,0.2,0.4,0.6,0.5v0.2h-3.5v-0.2c0.2,0,0.4-0.1,0.5-0.2c0.1-0.1,0.2-0.3,0.4-0.6l3.5-7.1c0.1-0.3,0.2-0.5,0.2-0.7
		c0-0.2-0.2-0.4-0.5-0.6v-0.2h3.7v0.2c-0.3,0.1-0.5,0.3-0.5,0.6c0,0.2,0.1,0.4,0.2,0.7l3.6,6.9c0.2,0.4,0.4,0.6,0.5,0.7
		c0.1,0.1,0.3,0.2,0.5,0.2V76.5z M33.1,60.7c0.2,0,0.4-0.1,0.4-0.2c0.1-0.1,0.1-0.2,0.1-0.4v-7.9c0-0.2,0-0.3-0.1-0.4
		c-0.1-0.1-0.2-0.2-0.4-0.2v-0.2h6.3c0.8,0,1.4,0,1.9,0.1c0.4,0.1,0.8,0.3,1.2,0.5c0.7,0.4,1,1.2,1,2.2c0,0.8-0.2,1.4-0.6,1.8
		c-0.4,0.4-1.1,0.7-2.1,0.9l1.8,2.5c0.3,0.5,0.6,0.8,0.8,1c0.2,0.2,0.4,0.3,0.7,0.3V61h-4v-0.2c0.3-0.1,0.4-0.2,0.4-0.4
		c0-0.1-0.1-0.3-0.3-0.6L38.3,57H36v3.1c0,0.2,0,0.3,0.1,0.4c0.1,0.1,0.2,0.2,0.4,0.2V61h-3.4V60.7z M43.9,75.1
		c-0.1,0-0.3,0.1-0.7,0.3c-0.8,0.4-1.5,0.8-2.1,0.9c-0.6,0.2-1.3,0.3-2.1,0.3c-1.6,0-2.8-0.4-3.9-1.1c-0.6-0.4-1-1-1.3-1.6
		c-0.4-0.7-0.5-1.5-0.5-2.3c0-1.1,0.3-2.1,1-3c1-1.4,2.6-2,4.7-2c0.8,0,1.5,0.1,2.1,0.3c0.6,0.2,1.3,0.5,2.1,1
		c0.4,0.2,0.6,0.3,0.7,0.3c0.1,0,0.2,0,0.3-0.1l0.2,0.2l-1.5,2.1l-0.2-0.1c0-0.1,0-0.1,0-0.1c0-0.1,0-0.1,0-0.1
		c0-0.3-0.4-0.6-1.2-0.9c-0.7-0.3-1.5-0.5-2.2-0.5c-1,0-1.9,0.3-2.6,0.8c-0.8,0.6-1.2,1.4-1.2,2.4c0,1,0.4,1.8,1.2,2.4
		c0.7,0.5,1.5,0.8,2.6,0.8c0.8,0,1.6-0.2,2.4-0.6c0.6-0.3,0.9-0.6,0.9-0.8c0,0,0-0.1,0-0.3l0.2-0.1l1.5,2.1l-0.2,0.2
		C44.1,75.2,44,75.1,43.9,75.1z M55,97.8h-8.3v-1.8H55V97.8z M55.6,92.4c-1,0.9-2.7,1.4-5,1.4c-1.6,0-2.9-0.2-4-0.7
		c-0.7-0.3-1.2-0.8-1.6-1.4c-0.5-0.6-0.7-1.3-0.7-2.1c0-1.5,1-2.6,2.9-3.1c-1.6-0.6-2.4-1.6-2.4-2.8c0-0.9,0.4-1.6,1.1-2.3
		c1-0.8,2.5-1.3,4.6-1.3c1.5,0,2.7,0.2,3.7,0.7c0.6,0.3,1.1,0.6,1.5,1.1c0.4,0.5,0.6,1.1,0.6,1.7c0,1.2-0.8,2.2-2.4,2.8
		c2,0.5,2.9,1.5,2.9,3.1C56.8,90.8,56.4,91.7,55.6,92.4z M65.1,75.5c-1,0.8-2.3,1.2-3.8,1.2c-1.5,0-2.8-0.4-3.8-1.2
		c-1.2-0.9-1.8-2.2-1.8-3.9c0-1.7,0.6-2.9,1.8-3.9c1-0.8,2.3-1.1,3.8-1.2c1.5,0,2.8,0.4,3.8,1.2c1.2,0.9,1.8,2.3,1.8,3.9
		C66.9,73.3,66.3,74.6,65.1,75.5z M79.4,76.5h-4.1v-0.2c0.3-0.1,0.4-0.2,0.4-0.4c0-0.1-0.1-0.3-0.3-0.6l-1.9-2.8h-2.3v3.1
		c0,0.2,0,0.3,0.1,0.4c0.1,0.1,0.2,0.2,0.4,0.2v0.2h-3.4v-0.2c0.2-0.1,0.4-0.1,0.4-0.2c0.1-0.1,0.1-0.2,0.1-0.4v-7.9
		c0-0.2,0-0.3-0.1-0.4c-0.1-0.1-0.2-0.2-0.4-0.2v-0.2h6.3c0.8,0,1.4,0,1.9,0.1c0.4,0.1,0.8,0.2,1.2,0.5c0.7,0.5,1,1.2,1,2.2
		c0,0.8-0.2,1.4-0.6,1.8c-0.4,0.4-1.1,0.8-2.1,0.9l1.8,2.5c0.3,0.5,0.6,0.8,0.8,0.9c0.2,0.2,0.4,0.3,0.7,0.3V76.5z M90.4,67.1
		c-0.3,0.1-0.5,0.2-0.7,0.3c-0.2,0.2-0.5,0.5-0.8,0.9l-2.9,3.9v3.3c0,0.2,0,0.3,0.1,0.4c0.1,0.1,0.2,0.2,0.4,0.2v0.2h-3.4v-0.2
		c0.2-0.1,0.4-0.1,0.4-0.2c0.1-0.1,0.1-0.2,0.1-0.4v-3.3l-2.9-3.9c-0.3-0.4-0.6-0.7-0.8-0.9c-0.2-0.2-0.4-0.3-0.7-0.3v-0.2h4.3v0.2
		c-0.4,0.1-0.6,0.3-0.6,0.5c0,0.1,0.1,0.4,0.4,0.8l1.4,1.9l1.4-1.9c0.3-0.4,0.4-0.6,0.4-0.8c0-0.2-0.2-0.4-0.5-0.5l0-0.2h4.1V67.1z
		 M93.1,53.7h-0.2c-0.1-0.2-0.1-0.4-0.2-0.4c-0.1-0.1-0.2-0.1-0.4-0.1h-2.8v7c0,0.2,0,0.3,0.1,0.4c0.1,0.1,0.2,0.2,0.4,0.2V61h-3.4
		v-0.2c0.2,0,0.3-0.1,0.4-0.2c0.1-0.1,0.1-0.2,0.1-0.4v-7h-2.8c-0.2,0-0.3,0-0.4,0.1c-0.1,0.1-0.2,0.2-0.2,0.4h-0.2v-2.8h0.2
		c0.1,0.2,0.1,0.3,0.2,0.4c0.1,0.1,0.2,0.1,0.4,0.1h8c0.2,0,0.3,0,0.4-0.1c0.1-0.1,0.2-0.2,0.2-0.4h0.2V53.7z"/>
</g>
</svg>
