<?xml version="1.0" encoding="utf-8"?>
<!-- Generator: Adobe Illustrator 21.0.2, SVG Export Plug-In . SVG Version: 6.00 Build 0)  -->
<svg version="1.1" id="レイヤー_2" xmlns="http://www.w3.org/2000/svg" xmlns:xlink="http://www.w3.org/1999/xlink" x="0px"
	 y="0px" viewBox="0 0 172.6 46.3" style="enable-background:new 0 0 172.6 46.3;" xml:space="preserve">
<style type="text/css">
	.st0{fill:#ffffff;}
</style>
<g>
	<path class="st0" d="M104.9,19.9l-10.4,0l-9.6,23.9l-0.4-0.6l-8.9-11.1l11.5-12.2l-10.1,0l-9.7,10.9l0-11l-8.7,0l0,26.1l8.7,0V34.3
		L76.1,46l17,0l1.7-4.5h9.9l1.7,4.5l9,0L104.9,19.9z M96.8,36.2l2.9-8.8l2.9,8.8H96.8z"/>
	<path class="st0" d="M163.6,46h9l-10.5-26.1l-10.4,0L141.3,46l9,0l1.7-4.4l9.9,0L163.6,46z M154,36.2l2.9-8.8l2.9,8.8L154,36.2z"/>
	<polygon class="st0" points="54.8,46 54.8,32.9 54.8,19.9 50.6,19.9 45.8,19.9 45.8,32.9 45.8,46 50.6,46 	"/>
	<path class="st0" d="M123.1,35.6c-3-0.2-4.8-0.4-6.4-2c-1.1-1-2.1-2.8-2.1-6c0-3.2,0.8-5,2.3-6.2c2.3-2,6.8-2,11.6-2
		c7.3,0,9.5,0.6,11.7,3.2c0.8,1,1.4,3.1,1.5,5.5l-8.1,0c0.2-2.3-2.6-2.4-5.7-2.4c-2.2,0-6-0.1-6.2,1.9c-0.2,2.2,2.6,2,4.6,2.1
		c0,0,4.5,0.2,7.7,0.3c3.5,0.2,4.7,1,5.7,2c1.5,1.5,1.8,4.1,1.8,6.2c0,7.2-4.6,8.1-12.7,8c-8,0-9.9-0.6-11.7-2.2
		c-1.3-1.1-2.5-3.2-2.5-6.5l7.8,0c-0.1,2.3,3.2,2.4,6.2,2.4c2.2,0,5.4,0.2,5.7-1.9c0.3-2.1-2.1-2-4.1-2.1
		C130.3,35.9,126.3,35.8,123.1,35.6"/>
	<polygon class="st0" points="50.3,0 48.1,6.6 41.2,6.6 46.8,10.7 44.7,17.4 50.3,13.3 56,17.4 53.8,10.7 59.4,6.6 52.5,6.6 	"/>
	<polygon class="st0" points="21.8,27.5 17.6,14.3 8.5,14.2 0,46 9.7,46 13.3,29.8 18,46 25.7,46 30.4,29.8 34,46 43.7,46 
		35.2,14.2 26.1,14.2 	"/>
</g>
</svg>
