<?xml version="1.0" encoding="utf-8"?>
<!-- Generator: Adobe Illustrator 21.0.2, SVG Export Plug-In . SVG Version: 6.00 Build 0)  -->
<svg version="1.1" id="レイヤー_1" xmlns="http://www.w3.org/2000/svg" xmlns:xlink="http://www.w3.org/1999/xlink" x="0px"
	 y="0px" viewBox="0 0 176.4 157.9" style="enable-background:new 0 0 176.4 157.9;" xml:space="preserve">
<style type="text/css">
	.st0{fill:#FFFFFF;}
</style>
<g>
	<path class="st0" d="M78.9,157.9c-20.1,0-39.1-7.5-53.8-21.3c-15.4-14.4-24.3-33.9-25-55C-0.7,60.5,6.9,40.4,21.3,25
		C35.7,9.6,55.2,0.7,76.3,0l0.1,4c-20,0.7-38.6,9.1-52.2,23.7C-4,57.9-2.4,105.4,27.8,133.7c14.6,13.7,33.7,20.8,53.7,20.2
		c20-0.7,38.6-9.1,52.2-23.7c13.7-14.6,20.8-33.7,20.2-53.7c-0.7-20-9.1-38.6-23.7-52.2l2.7-2.9c15.4,14.4,24.3,33.9,25,55
		c0.7,21.1-6.8,41.2-21.2,56.6c-14.4,15.4-33.9,24.3-55,25C80.7,157.8,79.8,157.9,78.9,157.9z"/>
</g>
<polygon class="st0" points="121.8,67.7 117.9,66.7 130,20.3 176.4,32.4 175.4,36.2 132.9,25.2 "/>
</svg>
