<?xml version="1.0" encoding="utf-8"?>
<!-- Generator: Adobe Illustrator 21.0.2, SVG Export Plug-In . SVG Version: 6.00 Build 0)  -->
<svg version="1.1" id="Capa_1" xmlns="http://www.w3.org/2000/svg" xmlns:xlink="http://www.w3.org/1999/xlink" x="0px" y="0px"
	 viewBox="0 0 15.4 12.5" style="enable-background:new 0 0 15.4 12.5;" xml:space="preserve">
<style type="text/css">
	.st0{fill:#000000;}
</style>
<g>
	<g>
		<g>
			<path class="st0" d="M15.4,1.5c-0.6,0.3-1.2,0.4-1.8,0.5c0.7-0.4,1.2-1,1.4-1.8c-0.6,0.4-1.3,0.6-2,0.8c-0.6-0.6-1.4-1-2.3-1
				C8.9,0,7.5,1.4,7.5,3.2c0,0.2,0,0.5,0.1,0.7C5,3.8,2.6,2.5,1.1,0.6C0.8,1,0.6,1.6,0.6,2.2c0,1.1,0.6,2.1,1.4,2.6
				c-0.5,0-1-0.2-1.4-0.4v0c0,1.5,1.1,2.8,2.5,3.1C2.9,7.6,2.6,7.7,2.3,7.7c-0.2,0-0.4,0-0.6-0.1c0.4,1.3,1.6,2.2,3,2.2
				c-1.1,0.8-2.4,1.4-3.9,1.4c-0.3,0-0.5,0-0.8,0c1.4,0.9,3.1,1.4,4.9,1.4c5.8,0,9-4.8,9-9l0-0.4C14.5,2.7,15,2.1,15.4,1.5z"/>
		</g>
	</g>
</g>
</svg>
